<?xml version="1.0" encoding="utf-8"?>
<!-- Generator: Adobe Illustrator 15.1.0, SVG Export Plug-In . SVG Version: 6.00 Build 0)  -->
<!DOCTYPE svg PUBLIC "-//W3C//DTD SVG 1.1//EN" "http://www.w3.org/Graphics/SVG/1.1/DTD/svg11.dtd">
<svg version="1.1" id="Layer_1" xmlns="http://www.w3.org/2000/svg" xmlns:xlink="http://www.w3.org/1999/xlink" x="0px" y="0px"
	 width="149.123px" height="235.087px" viewBox="0 0 149.123 235.087" enable-background="new 0 0 149.123 235.087"
	 xml:space="preserve">
<path fill="#2D2C2C" d="M120.346,220.947"/>
<path fill="#AECF4A" d="M107.463,146.412c0,4.639-0.842,13.572-0.842,13.572s-12.199,19.463-46.575,19.463
	c-34.376,0-46.284-17.322-46.284-17.322s-1.131-10.317-1.131-15.713c0-39.779,21.229-72.028,47.416-72.028
	C86.235,74.384,107.463,106.632,107.463,146.412z"/>
<path fill="#5F9BBC" d="M90.786,81.869c0,3.072-0.557,8.985-0.557,8.985s-8.078,12.887-30.839,12.887
	c-22.76,0-30.644-11.468-30.644-11.468s-0.749-6.832-0.749-10.404c0-26.338,14.056-47.689,31.393-47.689
	C76.729,34.18,90.786,55.531,90.786,81.869z"/>
<path fill="#A9CEDC" d="M77.221,37.014c0,1.787-0.324,5.231-0.324,5.231s-4.703,7.503-17.957,7.503
	c-13.251,0-17.841-6.678-17.841-6.678s-0.437-3.978-0.437-6.057c0-15.336,8.185-27.767,18.278-27.767
	C69.037,9.247,77.221,21.678,77.221,37.014z"/>
<path fill="#FFFFFF" d="M78.124,132.854c0,1.101-0.141,3.233-0.141,3.233s-1.553,2.645-7.344,3.213
	c-5.792,0.568-8.304-1.174-8.304-1.174s-0.191-2.428-0.191-3.707c0-9.43,3.209-17.137,7.622-17.57
	C74.179,116.417,78.124,123.425,78.124,132.854z"/>
<path fill="#FFFFFF" d="M96.793,125.974c0.154,1.088,0.191,2.031,0.191,2.031s0,2.646-3.629,4.416
	c-1.662,0.811-3.125,1.15-4.174,1.286c-1.047,0.135-1.682,0.069-1.682,0.069c-0.834-3.92-1.295-8.08-1.357-12.086
	c-0.031-1.951-0.055-3.949,0.381-5.866c0.334-1.471,0.883-3.091,2.455-3.638c2.191-0.763,3.785,1.416,4.691,3
	c1.063,1.852,1.688,3.913,2.205,5.969C96.272,122.745,96.561,124.355,96.793,125.974z"/>
<path fill="#FFFFFF" d="M46.633,71.156c0,0.709,0.091,2.084,0.091,2.084s1.001,1.708,4.737,2.072
	c3.737,0.368,5.358-0.756,5.358-0.756s0.123-1.566,0.123-2.392c0-6.083-2.071-11.055-4.917-11.333
	C49.178,60.553,46.633,65.073,46.633,71.156z"/>
<path fill="#FFFFFF" d="M34.59,66.718c-0.1,0.702-0.125,1.31-0.125,1.31s0,1.708,2.342,2.85c1.071,0.522,2.015,0.741,2.692,0.829
	c0.675,0.087,1.084,0.045,1.084,0.045c0.539-2.527,0.836-5.212,0.876-7.795c0.021-1.26,0.036-2.548-0.245-3.783
	c-0.216-0.95-0.57-1.995-1.585-2.349c-1.413-0.491-2.44,0.914-3.027,1.936c-0.684,1.194-1.087,2.523-1.42,3.851
	C34.926,64.634,34.74,65.673,34.59,66.718z"/>
<path fill="#FFFFFF" d="M49.296,28.337c0,0.498,0.064,1.464,0.064,1.464s0.702,1.2,3.328,1.458c2.625,0.256,3.765-0.533,3.765-0.533
	s0.086-1.1,0.086-1.68c0-4.274-1.454-7.769-3.455-7.964C51.083,20.886,49.296,24.063,49.296,28.337z"/>
<path fill="#FFFFFF" d="M68.174,28.337c0,0.498-0.063,1.464-0.063,1.464s-0.704,1.2-3.33,1.458
	c-2.625,0.256-3.763-0.533-3.763-0.533s-0.086-1.1-0.086-1.68c0-4.274,1.454-7.769,3.455-7.964
	C66.387,20.886,68.174,24.063,68.174,28.337z"/>
<path fill="#E8E8E8" d="M109.825,165.464c0,0,7.361,4.815,8.342,11.113c1.047,6.722-3.598,12.594-10.703,15.635
	c-7.422,3.174-17.789,4.922-17.789,4.922s1.389,1.268,1.018,3.04c-0.363,1.737-2.326,1.737-2.326,1.737s8.973,6.01,12.285,7.383
	c4.34,1.799,13.859,3.731,18.242,5.428c4.773,1.848,18.389,7.891,18.025,8.831c-0.348,0.901-11.816-1.022-15.699-1.737
	c-3.047-0.561-9.063-2.109-11.992-3.112c-0.773-0.265,11.992,5.573,11.482,6.515c-0.422,0.78-15.131-2.949-18.605-4.344
	c-1.785-0.715-16.313-6.514-18.244-7.311c-3.999-1.649-10.466-0.356-15.408-0.795c-4.425-0.395-11.484-3.475-14.246-4.055
	c-3.103-0.65-9.878-0.891-12.356-2.461c-1.599-1.014-1.879-3.959-1.744-4.922c0.291-2.071,7.499-1.024,7.995-2.75
	c0.291-1.014-0.295-1.719-1.018-2.605c-1.017-1.25-6.548-1.605-8.72-3.086c-2.085-1.42-4-2.857-5.663-4.18
	c-4-3.181-7.187-11.771-7.187-11.771s18.955,10.43,44.975,7.535C97.225,181.498,109.825,165.464,109.825,165.464z"/>
<path fill="#2D2C2C" d="M119.331,187"/>
<path fill="#2D2C2C" d="M40.105,198.392"/>
</svg>
