<?xml version="1.0" encoding="utf-8"?>
<!-- Generator: Adobe Illustrator 15.1.0, SVG Export Plug-In . SVG Version: 6.00 Build 0)  -->
<!DOCTYPE svg PUBLIC "-//W3C//DTD SVG 1.1//EN" "http://www.w3.org/Graphics/SVG/1.1/DTD/svg11.dtd">
<svg version="1.1" id="Layer_1" xmlns="http://www.w3.org/2000/svg" xmlns:xlink="http://www.w3.org/1999/xlink" x="0px" y="0px"
	 width="141.73px" height="141.73px" viewBox="0 0 141.73 141.73" enable-background="new 0 0 141.73 141.73" xml:space="preserve">
<path fill="#FEFFFF" d="M70.865,0C31.728,0,0,31.728,0,70.865s31.728,70.865,70.865,70.865s70.865-31.728,70.865-70.865
	S110.003,0,70.865,0z M82.377,89.025c1.955,1.678,3.691,4.994,3.691,10.064c0,7.266-0.068,13.127-0.068,14.91
	c0,1.453-1.564,2.619-2.932,2.613l-21.05,0.006c-1.254,0-2.963-1.18-2.963-2.619c0-1.291-0.047-4.709-0.073-9.244
	c-15.119,3.283-18.309-7.285-18.309-7.285c-2.471-6.279-6.034-7.951-6.034-7.951c-4.935-3.373,0.373-3.305,0.373-3.305
	c5.454,0.385,8.325,5.602,8.325,5.602c4.849,8.307,12.721,5.908,15.818,4.516c0.494-3.512,1.898-5.906,3.451-7.266
	c-12.069-1.371-24.757-6.033-24.757-26.861c0-5.933,2.118-10.785,5.594-14.584c-0.559-1.375-2.424-6.901,0.533-14.384
	c0,0,4.563-1.461,14.946,5.571c4.335-1.206,8.984-1.808,13.607-1.829c4.615,0.021,9.264,0.624,13.607,1.829
	c10.375-7.033,14.93-5.571,14.93-5.571c2.965,7.482,1.102,13.009,0.541,14.384c3.482,3.799,5.584,8.651,5.584,14.584
	C107.191,83.084,94.484,87.68,82.377,89.025z"/>
</svg>
