<?xml version="1.0" encoding="utf-8"?>
<!-- Generator: Adobe Illustrator 15.1.0, SVG Export Plug-In . SVG Version: 6.00 Build 0)  -->
<!DOCTYPE svg PUBLIC "-//W3C//DTD SVG 1.1//EN" "http://www.w3.org/Graphics/SVG/1.1/DTD/svg11.dtd">
<svg version="1.1" id="Layer_1" xmlns="http://www.w3.org/2000/svg" xmlns:xlink="http://www.w3.org/1999/xlink" x="0px" y="0px"
	 width="141.73px" height="141.73px" viewBox="0 0 141.73 141.73" enable-background="new 0 0 141.73 141.73" xml:space="preserve">
<circle fill="#2D2A2A" cx="70.865" cy="70.865" r="70.865"/>
<path fill-rule="evenodd" clip-rule="evenodd" fill="#FEFFFF" d="M83.068,116.613C84.436,116.619,86,115.453,86,114
	c0-1.783,0.068-7.645,0.068-14.91c0-5.07-1.736-8.387-3.691-10.064c12.107-1.346,24.814-5.941,24.814-26.82
	c0-5.933-2.102-10.785-5.584-14.584c0.561-1.375,2.424-6.901-0.541-14.384c0,0-4.555-1.461-14.93,5.571
	c-4.344-1.206-8.992-1.808-13.607-1.829c-4.623,0.021-9.272,0.624-13.607,1.829c-10.383-7.033-14.946-5.571-14.946-5.571
	c-2.957,7.482-1.091,13.009-0.533,14.384c-3.477,3.799-5.594,8.651-5.594,14.584c0,20.828,12.688,25.49,24.757,26.861
	c-1.553,1.359-2.957,3.754-3.451,7.266c-3.097,1.393-10.969,3.791-15.818-4.516c0,0-2.871-5.217-8.325-5.602
	c0,0-5.308-0.068-0.373,3.305c0,0,3.563,1.672,6.034,7.951c0,0,3.19,10.568,18.309,7.285c0.026,4.535,0.073,7.953,0.073,9.244
	c0,1.439,1.709,2.619,2.963,2.619L83.068,116.613z"/>
</svg>
