<?xml version="1.0" encoding="utf-8"?>
<!-- Generator: Adobe Illustrator 15.1.0, SVG Export Plug-In . SVG Version: 6.00 Build 0)  -->
<!DOCTYPE svg PUBLIC "-//W3C//DTD SVG 1.1//EN" "http://www.w3.org/Graphics/SVG/1.1/DTD/svg11.dtd">
<svg version="1.1" id="Layer_1" xmlns="http://www.w3.org/2000/svg" xmlns:xlink="http://www.w3.org/1999/xlink" x="0px" y="0px"
	 width="141.73px" height="141.73px" viewBox="0 0 141.73 141.73" enable-background="new 0 0 141.73 141.73" xml:space="preserve">
<g>
	<path fill="#FEFFFF" d="M70.865,0C31.728,0,0,31.728,0,70.865s31.728,70.865,70.865,70.865s70.865-31.728,70.865-70.865
		S110.003,0,70.865,0z M56.86,115.969c-16.031,0-23.762-7.64-23.762-15.842c0-3.985,1.985-9.631,8.508-13.51
		c6.849-4.21,16.14-4.761,21.117-5.104c-1.554-1.992-3.317-4.097-3.317-7.527c0-1.881,0.553-2.989,1.1-4.32
		c-1.218,0.113-2.428,0.222-3.534,0.222c-11.713,0-18.346-8.757-18.346-17.396c0-5.089,2.318-10.742,7.07-14.842
		c6.305-5.205,14.917-6.619,20.893-6.619h21.778l-7.188,4.517H74.33c2.54,2.103,7.84,6.533,7.84,14.956
		c0,8.191-4.637,12.078-9.275,15.73c-1.44,1.437-3.1,2.988-3.1,5.43c0,2.431,1.659,3.759,2.872,4.765l3.983,3.094
		c4.864,4.098,9.285,7.863,9.283,15.515C85.934,105.45,75.87,115.969,56.86,115.969z M115.677,72.146h-11.112v11.143h-5.471V72.146
		H88.037v-5.531h11.057V55.54h5.471v11.075h11.112V72.146z"/>
	<path fill="#FEFFFF" d="M72.447,55.598c0-7.978-4.754-20.382-13.922-20.382c-2.883,0-5.971,1.439-7.744,3.657
		c-1.881,2.329-2.428,5.311-2.428,8.199c0,7.418,4.308,19.712,13.818,19.712c2.763,0,5.737-1.322,7.515-3.096
		C72.229,61.131,72.447,57.594,72.447,55.598z"/>
	<path fill="#FEFFFF" d="M66.477,84.731c-0.88-0.111-1.433-0.111-2.537-0.111c-0.997,0-6.968,0.218-11.607,1.779
		c-2.433,0.881-9.504,3.541-9.504,11.404c0,7.866,7.626,13.523,19.452,13.523c10.615,0,16.253-5.108,16.253-11.967
		C78.533,93.696,74.884,90.714,66.477,84.731z"/>
</g>
</svg>
