<?xml version="1.0" encoding="utf-8"?>
<!-- Generator: Adobe Illustrator 15.1.0, SVG Export Plug-In . SVG Version: 6.00 Build 0)  -->
<!DOCTYPE svg PUBLIC "-//W3C//DTD SVG 1.1//EN" "http://www.w3.org/Graphics/SVG/1.1/DTD/svg11.dtd">
<svg version="1.1" id="Layer_1" xmlns="http://www.w3.org/2000/svg" xmlns:xlink="http://www.w3.org/1999/xlink" x="0px" y="0px"
	 width="106px" height="116px" viewBox="0 0 106 116" enable-background="new 0 0 106 116" xml:space="preserve">
<path fill="#FFFFFF" d="M53.398,5.226c-26.187,0-47.416,32.249-47.416,72.028c0,5.396,1.131,15.713,1.131,15.713
	s11.908,17.322,46.284,17.322c34.375,0,46.575-19.463,46.575-19.463s0.842-8.934,0.842-13.572
	C100.814,37.475,79.586,5.226,53.398,5.226z M71.334,66.93c0,0-1.553,2.645-7.344,3.213c-5.793,0.568-8.305-1.174-8.305-1.174
	s-0.191-2.428-0.191-3.707c0-9.43,3.21-17.137,7.622-17.57c4.413-0.432,8.358,6.576,8.358,16.005
	C71.475,64.797,71.334,66.93,71.334,66.93z M86.707,63.264c-1.662,0.811-3.125,1.15-4.174,1.286
	c-1.047,0.135-1.682,0.069-1.682,0.069c-0.834-3.92-1.295-8.08-1.357-12.086c-0.031-1.951-0.055-3.949,0.381-5.866
	c0.334-1.471,0.883-3.091,2.455-3.638c2.191-0.763,3.785,1.416,4.691,3c1.063,1.852,1.688,3.913,2.205,5.969
	c0.396,1.589,0.686,3.199,0.918,4.818c0.154,1.088,0.191,2.031,0.191,2.031S90.336,61.494,86.707,63.264z"/>
</svg>
