<?xml version="1.0" encoding="utf-8"?>
<!-- Generator: Adobe Illustrator 15.1.0, SVG Export Plug-In . SVG Version: 6.00 Build 0)  -->
<!DOCTYPE svg PUBLIC "-//W3C//DTD SVG 1.1//EN" "http://www.w3.org/Graphics/SVG/1.1/DTD/svg11.dtd">
<svg version="1.1" id="Layer_1" xmlns="http://www.w3.org/2000/svg" xmlns:xlink="http://www.w3.org/1999/xlink" x="0px" y="0px"
	 width="141.73px" height="141.73px" viewBox="0 0 141.73 141.73" enable-background="new 0 0 141.73 141.73" xml:space="preserve">
<circle fill="#1183BB" cx="70.865" cy="70.865" r="70.865"/>
<path fill="#FEFFFF" d="M40.124,57.581h14.123V103H40.124V57.581z M47.186,35c4.513,0,8.181,3.668,8.181,8.183
	c0,4.52-3.668,8.188-8.181,8.188c-4.525,0-8.183-3.668-8.183-8.188C39.003,38.667,42.661,35,47.186,35"/>
<path fill="#FEFFFF" d="M63.101,57.581h13.543v6.203h0.192c1.885-3.57,6.489-7.336,13.358-7.336c14.284,0,16.923,9.405,16.923,21.64
	V103H93.017V80.913c0-5.27-0.103-12.044-7.337-12.044c-7.345,0-8.467,5.739-8.467,11.663V103H63.101V57.581z"/>
</svg>
