<?xml version="1.0" encoding="utf-8"?>
<!-- Generator: Adobe Illustrator 15.1.0, SVG Export Plug-In . SVG Version: 6.00 Build 0)  -->
<!DOCTYPE svg PUBLIC "-//W3C//DTD SVG 1.1//EN" "http://www.w3.org/Graphics/SVG/1.1/DTD/svg11.dtd">
<svg version="1.1" id="Layer_1" xmlns="http://www.w3.org/2000/svg" xmlns:xlink="http://www.w3.org/1999/xlink" x="0px" y="0px"
	 width="141.73px" height="141.73px" viewBox="0 0 141.73 141.73" enable-background="new 0 0 141.73 141.73" xml:space="preserve">
<path fill="#FEFFFF" d="M70.865,0C31.728,0,0,31.728,0,70.865s31.728,70.865,70.865,70.865s70.865-31.728,70.865-70.865
	S110.003,0,70.865,0z M54.247,103H40.124V57.581h14.123V103z M47.186,51.371c-4.525,0-8.183-3.668-8.183-8.188
	c0-4.515,3.658-8.183,8.183-8.183c4.513,0,8.181,3.668,8.181,8.183C55.367,47.702,51.699,51.371,47.186,51.371z M107.117,103H93.017
	V80.913c0-5.27-0.103-12.044-7.337-12.044c-7.345,0-8.467,5.739-8.467,11.663V103H63.101V57.581h13.543v6.203h0.192
	c1.885-3.57,6.489-7.336,13.358-7.336c14.284,0,16.923,9.405,16.923,21.64V103z"/>
</svg>
