<?xml version="1.0" encoding="utf-8"?>
<!-- Generator: Adobe Illustrator 15.1.0, SVG Export Plug-In . SVG Version: 6.00 Build 0)  -->
<!DOCTYPE svg PUBLIC "-//W3C//DTD SVG 1.1//EN" "http://www.w3.org/Graphics/SVG/1.1/DTD/svg11.dtd">
<svg version="1.1" id="Layer_1" xmlns="http://www.w3.org/2000/svg" xmlns:xlink="http://www.w3.org/1999/xlink" x="0px" y="0px"
	 width="141.73px" height="141.73px" viewBox="0 0 141.73 141.73" enable-background="new 0 0 141.73 141.73" xml:space="preserve">
<circle fill="#F17722" cx="70.865" cy="70.865" r="70.865"/>
<g id="layer1">
	<path id="path2830" fill="#FDFDFE" d="M37.039,77.189l6.181,0.061l-0.215,27.527h41.14V77.351h6.517v34.112H37.005L37.039,77.189z"
		/>
	<rect id="rect3604" x="47.119" y="93.463" fill="#FDFDFE" width="32.228" height="6.858"/>
	
		<rect id="rect3606" x="47.46" y="82.664" transform="matrix(-0.9954 -0.0961 0.0961 -0.9954 118.7492 178.0728)" fill="#FDFDFE" width="32.402" height="7.029"/>
	
		<rect id="rect3606-1" x="49.263" y="71.436" transform="matrix(-0.9624 -0.2716 0.2716 -0.9624 108.1041 164.8634)" fill="#FDFDFE" width="32.399" height="7.027"/>
	
		<rect id="rect3606-1-3" x="54.234" y="59.265" transform="matrix(-0.856 -0.517 0.517 -0.856 98.2645 152.9321)" fill="#FDFDFE" width="32.399" height="7.028"/>
	
		<rect id="rect3606-1-3-7" x="64.537" y="48.16" transform="matrix(-0.5825 -0.8128 0.8128 -0.5825 85.7598 147.4005)" fill="#FDFDFE" width="32.4" height="7.031"/>
	
		<rect id="rect3606-1-3-7-6" x="79.084" y="42.342" transform="matrix(-0.1647 -0.9863 0.9863 -0.1647 65.7488 147.3911)" fill="#FDFDFE" width="32.398" height="7.028"/>
</g>
</svg>
