<?xml version="1.0" encoding="utf-8"?>
<!-- Generator: Adobe Illustrator 15.1.0, SVG Export Plug-In . SVG Version: 6.00 Build 0)  -->
<!DOCTYPE svg PUBLIC "-//W3C//DTD SVG 1.1//EN" "http://www.w3.org/Graphics/SVG/1.1/DTD/svg11.dtd">
<svg version="1.1" id="Layer_1" xmlns="http://www.w3.org/2000/svg" xmlns:xlink="http://www.w3.org/1999/xlink" x="0px" y="0px"
	 width="141.73px" height="141.73px" viewBox="0 0 141.73 141.73" enable-background="new 0 0 141.73 141.73" xml:space="preserve">
<path fill="#FEFFFF" d="M70.865,0C31.728,0,0,31.728,0,70.865s31.728,70.865,70.865,70.865s70.865-31.728,70.865-70.865
	S110.003,0,70.865,0z M58.383,51.396l27.733,16.751l-3.633,6.017L54.75,57.412L58.383,51.396z M50.826,67.168l31.181,8.801
	l-1.908,6.763l-31.182-8.799L50.826,67.168z M47.874,81.124l32.252,3.112l-0.679,6.996L47.2,88.119L47.874,81.124z M47.119,93.463
	h32.228v6.858H47.119V93.463z M90.662,111.463H37.005l0.034-34.273l6.181,0.061l-0.215,27.527h41.14V77.351h6.517V111.463z
	 M87.314,66.89L68.445,40.552l5.713-4.092L93.03,62.796L87.314,66.89z M94.485,62.413l-5.339-31.956l6.934-1.158l5.337,31.956
	L94.485,62.413z"/>
</svg>
