<?xml version="1.0" encoding="utf-8"?>
<!-- Generator: Adobe Illustrator 15.1.0, SVG Export Plug-In . SVG Version: 6.00 Build 0)  -->
<!DOCTYPE svg PUBLIC "-//W3C//DTD SVG 1.1//EN" "http://www.w3.org/Graphics/SVG/1.1/DTD/svg11.dtd">
<svg version="1.1" id="Layer_1" xmlns="http://www.w3.org/2000/svg" xmlns:xlink="http://www.w3.org/1999/xlink" x="0px" y="0px"
	 width="141.73px" height="141.73px" viewBox="0 0 141.73 141.73" enable-background="new 0 0 141.73 141.73" xml:space="preserve">
<path fill="#FEFFFF" d="M70.865,0C31.728,0,0,31.728,0,70.865s31.728,70.865,70.865,70.865s70.865-31.728,70.865-70.865
	S110.003,0,70.865,0z M106.25,56.249c0.032,0.729,0.049,1.461,0.049,2.196c0,22.427-17.07,48.285-48.285,48.285
	c-9.583,0-18.503-2.81-26.014-7.625c1.328,0.157,2.679,0.237,4.048,0.237c7.951,0,15.269-2.713,21.077-7.266
	c-7.427-0.137-13.694-5.042-15.854-11.784c1.037,0.197,2.099,0.304,3.193,0.304c1.548,0,3.047-0.206,4.471-0.595
	c-7.763-1.56-13.613-8.419-13.613-16.641c0-0.071,0-0.143,0.002-0.213c2.288,1.271,4.905,2.034,7.687,2.123
	c-4.553-3.044-7.549-8.238-7.549-14.126c0-3.11,0.837-6.025,2.298-8.531c8.37,10.268,20.875,17.023,34.979,17.73
	c-0.29-1.242-0.44-2.536-0.44-3.867c0-9.372,7.6-16.97,16.972-16.97c4.881,0,9.292,2.061,12.387,5.359
	c3.866-0.762,7.498-2.174,10.777-4.118c-1.267,3.963-3.958,7.288-7.462,9.389c3.432-0.41,6.702-1.322,9.746-2.671v0h0.001l-0.001,0
	C112.442,50.87,109.565,53.857,106.25,56.249z"/>
</svg>
